<svg width="32" height="88" viewBox="0 0 32 88" fill="none" xmlns="http://www.w3.org/2000/svg">
<path d="M15.7589 88C14.9038 87.928 14.0426 87.895 13.1956 87.7736C10.1704 87.3351 7.42158 86.273 5.14264 84.1261C2.31917 81.4502 0.973986 78.0745 0.705756 74.2109C0.608951 72.8235 0.592816 71.4259 0.590799 70.0344C0.581387 62.3004 0.581387 54.5684 0.590799 46.8385C0.590799 45.9205 0.610967 45.8978 1.48624 45.8958C2.58941 45.8958 3.69057 45.8958 4.79374 45.8958C5.76784 45.8958 5.77792 45.9061 5.77792 46.8797C5.77792 55.0618 5.76582 63.2438 5.79002 71.428C5.76574 72.7361 5.85279 74.044 6.05018 75.3368C6.53824 78.128 7.7967 80.4972 10.2551 81.9813C11.5014 82.7342 12.8995 83.1868 14.3431 83.3048C16.0352 83.451 17.7151 83.4572 19.3568 83.0331C22.6764 82.1748 25.0037 80.1411 26.1251 76.7756C26.6705 75.1214 26.9398 73.3853 26.9217 71.64C26.9096 63.416 26.9096 55.1921 26.9217 46.9682C26.8927 46.7628 26.8995 46.5537 26.9418 46.3507C27.0064 46.1757 27.1919 45.9205 27.325 45.9184C28.8275 45.8999 30.328 45.9184 31.8285 45.939C31.8873 45.9529 31.9433 45.9773 31.9938 46.0111V74.0894C31.9543 74.2051 31.9226 74.3234 31.8991 74.4435C31.6661 76.4593 31.0864 78.4173 30.1868 80.2275C29.0932 82.4568 27.4013 84.3228 25.3083 85.6082C22.9386 87.0513 20.2439 87.8454 17.4852 87.9135C17.1081 87.9259 16.731 87.9712 16.3538 88H15.7589Z" fill="black"/>
<path d="M14.6719 38.9034C14.8198 38.9314 14.9694 38.9493 15.1196 38.957C17.4429 38.9405 19.7582 38.9261 22.0896 38.8911C22.5575 38.8911 22.7309 39.0722 22.7309 39.5436C22.7309 41.355 22.7672 41.0092 21.3373 41.0133C17.2312 41.0277 13.123 41.0133 9.01689 41.0133C8.19607 41.0133 8.15573 40.9824 8.16783 40.1549C8.18598 38.9611 7.90767 39.0187 9.27907 38.6112C11.4289 37.9689 13.5849 37.3432 15.7327 36.7071C15.9062 36.6557 16.0736 36.5754 16.243 36.5013L16.2107 36.314H15.5895C13.3872 36.314 11.1836 36.314 8.97857 36.314C8.20414 36.314 8.15977 36.2667 8.17187 35.4783C8.17187 34.2062 8.00246 34.1918 9.39604 34.1939C13.5425 34.1939 17.6897 34.1939 21.8375 34.1939C22.6724 34.1939 22.7228 34.2474 22.7329 35.0913C22.749 36.3078 22.745 36.2934 21.6015 36.6289C19.3831 37.2773 17.1828 37.9422 14.9744 38.6029C14.8677 38.6404 14.7633 38.6844 14.6618 38.7347L14.6719 38.9034Z" fill="black"/>
<path d="M8.15573 27.3333V26.9648C8.15573 25.9233 8.15573 25.9068 9.13184 25.7504C13.1452 25.0999 17.1592 24.4543 21.1739 23.8134C21.5087 23.7531 21.8399 23.6741 22.1662 23.5767C22.5695 23.4635 22.7289 23.6467 22.7289 24.0399C22.7289 24.2642 22.7289 24.4907 22.7289 24.7171C22.7289 25.8451 22.7289 25.8409 21.6035 25.9727C21.1477 26.0241 20.694 26.1024 20.2382 26.1682C20.1675 26.1685 20.0977 26.1841 20.0335 26.2141C19.9692 26.244 19.912 26.2877 19.8656 26.342C19.8192 26.3964 19.7847 26.4602 19.7645 26.5293C19.7442 26.5984 19.7386 26.6711 19.7481 26.7425C19.7602 27.1316 19.7481 27.5227 19.7481 27.9117C19.7481 28.3007 19.9336 28.4921 20.3229 28.5436C20.9581 28.6239 21.5854 28.7659 22.2206 28.8524C22.291 28.8507 22.3608 28.8645 22.4255 28.8927C22.4902 28.921 22.5482 28.963 22.5956 29.0161C22.643 29.0691 22.6787 29.132 22.7003 29.2003C22.7219 29.2686 22.7289 29.3409 22.7208 29.4122C22.7208 29.8013 22.7208 30.1924 22.7208 30.5814C22.7208 31.0095 22.5433 31.1557 22.1158 31.0816C20.8714 30.8655 19.623 30.6823 18.3767 30.4805C15.9055 30.0785 13.4349 29.675 10.9651 29.2702C10.1745 29.1405 9.39201 28.9676 8.59942 28.8421C8.53444 28.8427 8.4701 28.829 8.41078 28.802C8.35145 28.7749 8.29855 28.7351 8.25567 28.6853C8.21278 28.6355 8.18093 28.5768 8.1623 28.5133C8.14366 28.4497 8.13867 28.3829 8.14766 28.3172C8.14766 27.9899 8.14766 27.6606 8.14766 27.3333H8.15573ZM12.8064 27.2262L12.7882 27.4321L17.4268 28.1402C17.4448 27.7326 17.4388 27.3243 17.4086 26.9175C17.379 26.8441 17.3313 26.7798 17.2702 26.7308C17.2091 26.6817 17.1366 26.6496 17.0597 26.6375C15.644 26.8207 14.2262 27.0266 12.8064 27.2262Z" fill="black"/>
<path d="M10.7958 0.0638135C11.9373 0.0638135 11.9373 0.0638131 12.026 1.23092C12.0905 2.06456 12.0361 2.12014 11.2193 2.20659C10.9792 2.20715 10.7432 2.2702 10.5336 2.38979C10.3178 2.55652 10.0274 2.86733 10.0617 3.06494C10.104 3.32018 10.4126 3.68245 10.6445 3.7195C11.1406 3.78537 11.7396 3.8183 12.1571 3.59394C13.1796 3.04641 14.1254 2.34862 15.0975 1.70434C15.336 1.55361 15.5631 1.38505 15.7772 1.20004C17.3079 -0.172901 19.1512 -0.0185224 20.9724 0.104981C21.8033 0.160557 22.6019 1.08889 22.8056 2.16336C22.9683 2.95127 22.9146 3.76975 22.6503 4.52845C22.2974 5.51441 21.5814 6.03518 20.6335 6.26572C20.1858 6.37276 19.724 6.41599 19.2682 6.48597C18.8487 6.55184 18.6148 6.35835 18.5724 5.93226C18.5301 5.50618 18.4938 5.03481 18.4575 4.58402C18.4333 4.29791 18.5906 4.17235 18.8467 4.14765C19.1653 4.10854 19.486 4.07972 19.8006 4.01797C20.0144 3.9768 20.2826 3.95004 20.4056 3.81213C20.6224 3.58999 20.771 3.30815 20.8332 3.00113C20.8756 2.6512 20.6114 2.38361 20.2665 2.30128C19.6131 2.13866 18.9374 2.0728 18.3365 2.43507C17.4863 2.93523 16.6617 3.47935 15.8659 4.06531C14.7426 4.90719 13.589 5.65027 12.2357 6.05165C11.068 6.39746 9.35781 5.89933 8.57531 4.90719C7.90574 4.05913 7.81297 2.31569 8.38372 1.2762C8.82135 0.483724 9.64218 0.0720471 10.7958 0.0638135Z" fill="black"/>
<path d="M15.4384 14.4087H9.00896C8.2446 14.4087 8.17805 14.3449 8.17805 13.5853C8.17805 11.8048 8.03284 12.0498 9.68457 12.0457C13.1131 12.0457 16.5416 12.0457 19.958 12.0457C20.7869 12.0457 20.7889 12.0457 20.7909 11.1832C20.7909 10.6089 20.7909 10.0346 20.7909 9.4624C20.7909 9.14129 20.92 8.95603 21.2548 8.96221C21.2944 8.96425 21.3341 8.96425 21.3737 8.96221C22.725 8.90252 22.727 8.90252 22.725 10.294C22.725 11.422 22.725 12.5582 22.725 13.6759C22.725 14.3387 22.6282 14.4231 21.9889 14.4231C19.8054 14.4135 17.6219 14.4087 15.4384 14.4087Z" fill="black"/>
<path d="M15.529 18.0561H21.9564C22.6341 18.0561 22.7127 18.1385 22.7309 18.828C22.7309 19.1759 22.7309 19.5258 22.7208 19.8737C22.7265 19.946 22.7165 20.0187 22.6916 20.0866C22.6667 20.1545 22.6275 20.216 22.5766 20.2667C22.5258 20.3174 22.4647 20.356 22.3976 20.3799C22.3305 20.4037 22.259 20.4122 22.1884 20.4047C22.0492 20.4047 21.9101 20.4047 21.7689 20.4047C17.5431 20.4047 13.318 20.4047 9.09352 20.4047C8.25253 20.4047 8.19404 20.3512 8.19606 19.5135C8.19606 17.8174 8.0327 18.0602 9.64208 18.05C11.5983 18.0479 13.5607 18.0561 15.529 18.0561Z" fill="black"/>
</svg>
