<svg width="44" height="44" viewBox="0 0 44 44" fill="none" xmlns="http://www.w3.org/2000/svg">
<path d="M3.10623 24.7125V39.5C3.10623 41.4299 4.67596 43 6.60541 43H37.3983C39.3277 43 40.8975 41.4299 40.8975 39.5V24.7125C40.8975 24.3259 40.5841 24.0125 40.1976 24.0125C39.8111 24.0125 39.4978 24.3259 39.4978 24.7125V39.5C39.4978 40.658 38.556 41.6 37.3983 41.6H29.7875V29.7875C29.7875 27.8576 28.2178 26.2875 26.2883 26.2875H17.7153C15.7859 26.2875 14.2161 27.8576 14.2161 29.7875V38.8C14.2161 39.1866 14.5295 39.5 14.916 39.5C15.3025 39.5 15.6158 39.1866 15.6158 38.8V29.7875C15.6158 28.6296 16.5577 27.6875 17.7153 27.6875H26.2883C27.446 27.6875 28.3879 28.6296 28.3879 29.7875V41.6H22.7017V30.575C22.7017 30.1884 22.3883 29.875 22.0018 29.875C21.6154 29.875 21.302 30.1884 21.302 30.575V41.6H6.60541C5.44779 41.6 4.5059 40.658 4.5059 39.5V24.7125C4.5059 24.3259 4.19255 24.0125 3.80606 24.0125C3.41958 24.0125 3.10623 24.3258 3.10623 24.7125ZM38.448 12.2C38.448 12.5866 38.1347 12.9 37.7482 12.9C-0.32893 12.9 1.55897 12.9681 1.28079 12.7547C1.13539 12.6428 1.0403 12.4813 1.01424 12.2969C0.97522 12.0155 0.724066 12.7073 5.61339 1.42166C5.72441 1.16564 5.97661 1 6.25558 1H37.7483C38.0272 1 38.2795 1.16572 38.3904 1.42166L42.9393 11.9217C43.0197 12.1073 42.9971 11.8126 42.9971 16.5428C42.992 19.7265 40.402 22.3167 37.2234 22.3167C35.0382 22.3167 33.1313 21.0925 32.1511 19.293C29.9618 23.3171 24.1952 23.3216 22.0019 19.2957C19.8104 23.3184 14.0464 23.3192 11.8543 19.2957C10.8748 21.0937 8.96763 22.3167 6.78046 22.3167C3.59681 22.3167 1.0068 19.7261 1.0068 16.5417C1.0068 16.1551 1.32015 15.8417 1.70664 15.8417C2.09312 15.8417 2.40648 16.1551 2.40648 16.5417C2.40648 18.954 4.36865 20.9167 6.78046 20.9167C9.19228 20.9167 11.1544 18.954 11.1544 16.5417C11.1544 16.1551 11.4678 15.8417 11.8543 15.8417C12.2408 15.8417 12.5541 16.1551 12.5541 16.5417C12.5541 18.954 14.5163 20.9167 16.9281 20.9167C19.3399 20.9167 21.3021 18.954 21.3021 16.5417C21.3021 16.1551 21.6154 15.8417 22.0019 15.8417C22.3884 15.8417 22.7018 16.1551 22.7018 16.5417C22.7018 18.954 24.6639 20.9167 27.0757 20.9167C29.4339 20.9167 31.4497 19.0211 31.4497 16.5067C31.4497 16.1201 31.7631 15.8067 32.1496 15.8067C32.5361 15.8067 32.8494 16.1201 32.8494 16.5067C32.8494 18.9998 34.8526 20.9167 37.2234 20.9167C39.6314 20.9167 41.5936 18.9535 41.5974 16.5417V12.3451L37.2887 2.4H6.71494L2.77258 11.5H37.7482C38.1348 11.5 38.448 11.8133 38.448 12.2V12.2Z" fill="black" stroke="black" stroke-width="1.06642"/>
</svg>
