<svg width="100" height="100" viewBox="0 0 100 100" fill="none" xmlns="http://www.w3.org/2000/svg">
<path d="M67.8125 61.8086C67.7354 61.4545 67.521 61.1454 67.2164 60.949C66.9119 60.7527 66.5419 60.685 66.1875 60.7609L63.6922 61.2992C63.5147 61.3351 63.3461 61.4058 63.1962 61.5074C63.0463 61.6089 62.9181 61.7392 62.8189 61.8907C62.7198 62.0422 62.6517 62.2118 62.6187 62.3899C62.5856 62.5679 62.5883 62.7507 62.6265 62.9276C62.6646 63.1046 62.7376 63.2723 62.8411 63.4208C62.9446 63.5694 63.0765 63.6959 63.2293 63.7931C63.3821 63.8902 63.5527 63.956 63.7311 63.9867C63.9095 64.0174 64.0923 64.0124 64.2687 63.9719L66.7648 63.4336C67.1192 63.357 67.4287 63.1428 67.6252 62.8381C67.8217 62.5333 67.889 62.163 67.8125 61.8086Z" fill="#D53444"/>
<path d="M58.9344 62.325L52.0164 63.8172C51.8389 63.853 51.6704 63.9238 51.5204 64.0253C51.3705 64.1268 51.2423 64.2571 51.1431 64.4086C51.044 64.5601 50.9759 64.7298 50.9429 64.9078C50.9099 65.0858 50.9125 65.2686 50.9507 65.4456C50.9889 65.6226 51.0618 65.7902 51.1653 65.9388C51.2688 66.0873 51.4008 66.2139 51.5535 66.311C51.7063 66.4081 51.8769 66.474 52.0553 66.5047C52.2337 66.5354 52.4165 66.5303 52.593 66.4898L59.5109 64.9976C59.8613 64.9172 60.1659 64.702 60.3588 64.3987C60.5517 64.0953 60.6173 63.7282 60.5415 63.3768C60.4657 63.0254 60.2546 62.718 59.9538 62.5211C59.653 62.3243 59.2867 62.2538 58.9344 62.325Z" fill="#D53444"/>
<path d="M37.3 71.6929C35.6344 72.0517 34.1126 72.8964 32.9271 74.1201C31.7416 75.3438 30.9456 76.8916 30.6398 78.5677C30.334 80.2439 30.5321 81.973 31.2091 83.5366C31.8861 85.1001 33.0115 86.4277 34.4431 87.3516C35.8747 88.2754 37.5481 88.754 39.2517 88.7268C40.9553 88.6995 42.6125 88.1677 44.0138 87.1986C45.4151 86.2294 46.4976 84.8665 47.1242 83.2821C47.7509 81.6977 47.8936 79.9631 47.5344 78.2976C47.0507 76.0659 45.7015 74.1172 43.7829 72.879C41.8642 71.6409 39.5328 71.2143 37.3 71.6929ZM40.3555 85.8593C39.2187 86.1046 38.0348 86.0074 36.9533 85.5798C35.8719 85.1523 34.9415 84.4136 34.2799 83.4573C33.6182 82.501 33.255 81.3699 33.2362 80.2072C33.2173 79.0444 33.5437 77.9022 34.1741 76.9249C34.8044 75.9477 35.7104 75.1793 36.7774 74.717C37.8445 74.2546 39.0247 74.1191 40.1687 74.3275C41.3128 74.5358 42.3694 75.0788 43.2049 75.8877C44.0404 76.6966 44.6172 77.7351 44.8625 78.8718C45.1892 80.3959 44.8983 81.9874 44.0534 83.2972C43.2085 84.6071 41.8787 85.5285 40.3555 85.8593Z" fill="#D53444"/>
<path d="M96.4062 67.757L95.2398 62.3476C95.202 62.1721 95.13 62.0057 95.0278 61.858C94.9257 61.7103 94.7954 61.5842 94.6445 61.4868C94.4936 61.3894 94.325 61.3228 94.1483 61.2906C93.9717 61.2584 93.7904 61.2613 93.6148 61.2992L88.4641 62.4101L79.2523 19.6875C79.1756 19.3334 78.9614 19.0241 78.6569 18.8277C78.3524 18.6313 77.9824 18.5637 77.6281 18.6398L50.2344 24.5461L34.9047 27.8523L29.8984 4.63906C29.8324 4.33358 29.6637 4.05992 29.4205 3.86363C29.1773 3.66733 28.8742 3.56023 28.5617 3.56015H4.92734C4.74777 3.56005 4.56994 3.59534 4.40402 3.66401C4.23809 3.73268 4.08734 3.83339 3.96036 3.96036C3.83339 4.08734 3.73268 4.23809 3.66401 4.40402C3.59534 4.56994 3.56005 4.74777 3.56015 4.92734V10.4609C3.56015 10.8235 3.70419 11.1713 3.96059 11.4277C4.21699 11.6841 4.56474 11.8281 4.92734 11.8281H22.9906L34.3523 64.5125C31.3757 65.4192 28.7204 67.1582 26.6995 69.5242C24.6786 71.8903 23.3763 74.7849 22.9462 77.8667C22.5161 80.9485 22.9761 84.089 24.2719 86.918C25.5678 89.747 27.6455 92.1465 30.2601 93.8336C32.8747 95.5207 35.9172 96.425 39.0288 96.44C42.1404 96.455 45.1915 95.58 47.8222 93.9182C50.453 92.2564 52.5537 89.8771 53.8768 87.0607C55.1999 84.2444 55.6902 81.1084 55.2898 78.0226L95.3578 69.3812C95.7122 69.3048 96.0217 69.0908 96.2183 68.7862C96.4149 68.4816 96.4825 68.1114 96.4062 67.757ZM42.7476 64.2187L37.8906 41.7078L51.8844 38.6898L53.9383 48.2031C53.9944 48.465 54.1264 48.7045 54.3176 48.8919C54.5089 49.0793 54.7511 49.2063 55.0141 49.257C55.0998 49.2738 55.1869 49.2822 55.2742 49.282C55.4978 49.282 55.718 49.2271 55.9155 49.1222C56.113 49.0174 56.2817 48.8657 56.407 48.6805L60.0836 43.243L65.2344 46.7305C65.4602 46.8833 65.7267 46.965 65.9994 46.9653C66.2721 46.9655 66.5386 46.8841 66.7648 46.7317C66.9909 46.5792 67.1662 46.3626 67.2683 46.1097C67.3704 45.8568 67.3945 45.5792 67.3375 45.3125L65.2859 35.7992L79.2797 32.7812L85.7945 62.9867L52.1016 70.2523C49.782 67.2126 46.4735 65.0785 42.7476 64.2187ZM60.2016 25.1937L62.325 35.0375L63.9461 42.5531L60.4836 40.2094C60.1831 40.0062 59.8143 39.9306 59.4581 39.9993C59.102 40.068 58.7877 40.2754 58.5844 40.5758L55.9375 44.4937L52.1476 26.9305L60.2016 25.1937ZM78.7031 30.1086L64.7094 33.125L62.8742 24.6172L76.868 21.5992L78.7031 30.1086ZM49.475 27.507L51.3102 36.0156L37.3164 39.0351L35.4812 30.525L49.475 27.507ZM24.0937 9.09374H6.29453V6.29453H27.4578L32.5195 29.7656L39.8633 63.8219C38.915 63.776 37.9644 63.8133 37.0226 63.9336L25.4305 10.1726C25.3646 9.8671 25.1959 9.59337 24.9527 9.39705C24.7095 9.20073 24.4063 9.09368 24.0937 9.09374ZM41.9844 93.3976C39.3561 93.966 36.6182 93.7421 34.1172 92.7543C31.6162 91.7664 29.4643 90.059 27.9338 87.8479C26.4034 85.6369 25.563 83.0216 25.5191 80.3329C25.4752 77.6442 26.2298 75.0029 27.6872 72.7431C29.1447 70.4833 31.2397 68.7065 33.7072 67.6375C36.1746 66.5686 38.9037 66.2554 41.5491 66.7377C44.1946 67.22 46.6376 68.476 48.569 70.347C50.5005 72.2179 51.8337 74.6197 52.4 77.2484C53.155 80.7713 52.4821 84.4497 50.5288 87.4771C48.5756 90.5045 45.5014 92.6337 41.9805 93.3976H41.9844ZM54.7187 75.3508C54.4401 74.4433 54.0822 73.562 53.6492 72.7172L92.8594 64.2609L93.45 66.9953L54.7187 75.3508Z" fill="#D53444"/>
</svg>
