<svg width="82" height="82" viewBox="0 0 82 82" fill="none" xmlns="http://www.w3.org/2000/svg">
<g clip-path="url(#clip0)">
<path d="M71.1923 50.8462C68.8461 49.25 65.7692 49.25 63.4038 50.8462C62.25 50.0577 60.9038 49.6539 59.5192 49.6539C55.6731 49.6539 52.5769 52.7692 52.5769 56.5962C52.5769 60.4231 55.6731 63.5577 59.5192 63.5577C60.9038 63.5577 62.25 63.1539 63.4038 62.3654C66.5769 64.5192 70.9038 63.6731 73.0577 60.5C75.2115 57.3269 74.3654 53 71.1923 50.8462ZM69.6346 58.6154C68.5385 59.9231 66.5961 60.0962 65.2884 59C65.1346 58.8846 65.0192 58.75 64.8846 58.5962C64.5192 58.1539 63.9615 57.9039 63.4038 57.9231C62.8269 57.9231 62.2884 58.1731 61.9231 58.6154C61.3461 59.3269 60.4615 59.75 59.5384 59.7308C57.8269 59.7308 56.4231 58.3462 56.4231 56.6346C56.4038 54.9039 57.7884 53.5192 59.5192 53.5192C60.4423 53.5192 61.3269 53.9423 61.9038 54.6539C62.5769 55.4808 63.7884 55.6154 64.6154 54.9423C64.7115 54.8654 64.8077 54.7692 64.9038 54.6539C66 53.3462 67.9423 53.1731 69.25 54.2692C70.5577 55.3654 70.7308 57.3077 69.6346 58.6154Z" fill="#D53444"/>
<path d="M81.9231 34.5385C81.9231 34.3654 82 34.1731 82 33.9808C82 33.7885 81.9231 33.6154 81.9231 33.4423V29.3269C81.9231 24.8077 78.2115 21.1923 73.6923 21.1923H71.3461V18.8654C71.3461 14.3462 67.75 10.6154 63.2308 10.6154H8.15383C3.6346 10.6154 -1.55906e-05 14.3462 -1.55906e-05 18.8654V52.6731C-0.0192464 57.1538 3.61537 60.7885 8.09614 60.8077C8.11537 60.8077 8.1346 60.8077 8.15383 60.8077H10.3846V63.1346C10.4038 67.6731 14.0577 71.3654 18.5961 71.3846H73.6923C78.2308 71.3462 81.9038 67.6731 81.9231 63.1346V43.5577C81.9231 43.3846 82 43.1923 82 43.0192C82 42.8462 81.9231 42.6538 81.9231 42.4808V34.5385ZM10.3846 29.3269V56.9615H8.15383C5.80768 56.9808 3.86537 55.0962 3.84614 52.75C3.84614 52.7308 3.84614 52.7115 3.84614 52.6923V18.8654C3.84614 16.4808 5.74999 14.4615 8.15383 14.4615H63.25C65.6538 14.4615 67.5192 16.4808 67.5192 18.8654V21.1923H18.5961C14.0769 21.1923 10.3846 24.8077 10.3846 29.3269ZM78.0769 63.1346C78.0577 65.5577 76.1154 67.5192 73.6923 67.5385H18.5961C16.1731 67.5192 14.2308 65.5577 14.2308 63.1346V44.8462H78.0769V63.1346ZM78.0769 41H14.2308V36H78.0769V41ZM78.0961 32.1538H78.0769H14.2308V29.3269C14.25 26.9423 16.1923 25.0192 18.5961 25.0385H18.6154H73.7115C76.1154 25.0385 78.0961 26.9231 78.0961 29.3269V32.1538Z" fill="#D53444"/>
</g>
<defs>
<clipPath id="clip0">
<rect width="82" height="82" fill="white"/>
</clipPath>
</defs>
</svg>
