<svg width="100" height="100" viewBox="0 0 100 100" fill="none" xmlns="http://www.w3.org/2000/svg">
<g clip-path="url(#clip0)">
<path d="M95.2323 58.5731H93.7358V45.0936C93.7358 42.9596 92.6737 41.0702 91.0517 39.9221V38.0868C91.0517 35.4245 88.8858 33.2587 86.2235 33.2587H85.1061L89.3813 26.9852C90.8144 24.8825 90.2694 22.0057 88.1667 20.5725L59.1567 0.803002C58.1382 0.108666 56.9104 -0.147584 55.6987 0.0822989C54.4876 0.311791 53.4382 0.999096 52.744 2.01785L27.7048 38.7606H20.737L22.4181 21.743C22.437 21.5512 22.5616 21.385 22.7354 21.3196C24.9013 20.503 26.7782 18.978 28.0204 17.0257C28.1183 16.8719 28.3028 16.7841 28.4939 16.8034L39.4226 17.8831C40.2062 17.9591 40.9032 17.3884 40.9806 16.6052C41.0579 15.8219 40.4858 15.1245 39.7026 15.0471L28.7739 13.9675C27.5054 13.8432 26.2956 14.4278 25.6159 15.4958C24.7026 16.9313 23.3226 18.0524 21.7302 18.6528C20.5315 19.1048 19.7085 20.1813 19.5819 21.4628L17.8733 38.7604H16.0563L18.7149 11.8456C18.8106 10.8768 19.6753 10.1651 20.6452 10.2622L42.73 12.4438C43.5132 12.5194 44.2106 11.9491 44.288 11.1659C44.3653 10.3827 43.7933 9.68523 43.0101 9.60789L20.9253 7.42624C18.3933 7.17644 16.129 9.03288 15.8788 11.5653L13.7358 33.2587H10.0864C7.42432 33.2587 5.2583 35.4245 5.2583 38.0868V39.3387C3.08037 40.3415 1.56396 42.543 1.56396 45.0936V93.6669C1.56396 97.1591 4.40498 100 7.89736 100H87.4026C90.8948 100 93.7358 97.1591 93.7358 93.6669V80.1876H95.2323C96.9987 80.1876 98.4356 78.7507 98.4356 76.9845V61.7764C98.4358 60.01 96.9987 58.5731 95.2323 58.5731ZM86.2235 36.1087C87.3146 36.1085 88.2019 36.996 88.2019 38.087V38.813C87.9397 38.7798 87.6735 38.7608 87.4026 38.7608H81.3567L83.164 36.1087H86.2235ZM55.0989 3.62253C55.3646 3.23289 55.7659 2.96999 56.2292 2.8821C56.3399 2.86121 56.4511 2.85066 56.5614 2.85066C56.9124 2.85066 57.2554 2.95574 57.5519 3.15769L86.5618 22.9272C87.3661 23.4755 87.5747 24.5759 87.0267 25.3801L77.9083 38.7602H75.72L80.1905 32.2003C80.9155 31.1364 80.9753 29.7825 80.346 28.6667C79.5097 27.1842 79.1706 25.4387 79.3913 23.7514C79.5554 22.4962 79.003 21.2708 77.9499 20.5532L62.9112 10.3048C61.8579 9.58699 60.5153 9.52117 59.4071 10.1331C57.9179 10.9553 56.1692 11.2782 54.4837 11.0423C53.2337 10.8669 51.9659 11.4313 51.2517 12.4792L33.3417 38.7604H31.1534L55.0989 3.62253ZM55.7265 27.82C49.5212 27.82 44.4274 32.6585 44.0124 38.7604H36.7899L53.6062 14.0841C53.6063 14.0841 53.6063 14.0841 53.6063 14.0841C53.7019 13.9436 53.8603 13.86 54.0229 13.86C54.0446 13.86 54.0663 13.8616 54.088 13.8645C56.3806 14.1852 58.7585 13.7466 60.7843 12.628C60.9437 12.5397 61.1483 12.5524 61.3062 12.6598L76.345 22.9085C76.5024 23.0159 76.589 23.2018 76.5655 23.3823C76.2653 25.677 76.7267 28.0509 77.864 30.0669C77.9552 30.2288 77.944 30.4362 77.8358 30.5954L72.2718 38.7602H67.4411C67.0257 32.6585 61.9321 27.82 55.7265 27.82ZM64.5835 38.7606H46.8696C47.2778 34.2315 51.0931 30.67 55.7265 30.67C60.3601 30.6698 64.1755 34.2315 64.5835 38.7606ZM8.10811 38.0868C8.10811 36.9958 8.99541 36.1083 10.0864 36.1083H13.4544L13.1925 38.7604H8.10811V38.0868ZM4.41377 45.0936C4.41377 43.1729 5.97647 41.6102 7.89736 41.6102H87.4026C89.3235 41.6102 90.886 43.1729 90.886 45.0936V49.0475H4.41377V45.0936ZM90.886 93.6669C90.886 95.5876 89.3235 97.1503 87.4026 97.1503H7.89736C5.97647 97.1503 4.41377 95.5876 4.41377 93.6669V89.713H12.0978C12.8849 89.713 13.5226 89.0751 13.5226 88.2882C13.5226 87.5012 12.8847 86.8634 12.0978 86.8634H4.41377V51.8973H90.886V58.5731H77.338H77.3378C73.069 58.5731 69.3714 61.0614 67.6165 64.6632C67.6106 64.6753 67.604 64.687 67.5979 64.6991C67.5831 64.7298 67.5702 64.7616 67.5558 64.7925C67.3468 65.2364 67.1651 65.696 67.0173 66.1702C67.0169 66.1716 67.0165 66.1727 67.0161 66.1741C66.7007 67.1876 66.5306 68.2643 66.5306 69.3803C66.5306 75.3395 71.3786 80.1876 77.3376 80.1876H77.3378H90.8858V86.8634H21.2216C20.4345 86.8634 19.7968 87.5012 19.7968 88.2882C19.7968 89.0751 20.4347 89.713 21.2216 89.713H90.886V93.6669ZM95.586 76.9843C95.586 77.1792 95.4274 77.3378 95.2323 77.3378H77.3382C74.3216 77.3378 71.6915 75.6505 70.3425 73.1702C70.2812 73.0575 70.2226 72.943 70.1665 72.8272C70.0546 72.5954 69.9536 72.3573 69.8644 72.1136C69.5515 71.2608 69.3808 70.3401 69.3808 69.3803C69.3808 68.4206 69.5517 67.4999 69.8644 66.6471C69.9538 66.4036 70.0548 66.1655 70.1665 65.9335C70.2226 65.8177 70.2812 65.7032 70.3425 65.5905C71.6915 63.1102 74.3216 61.4229 77.3382 61.4229H95.2323C95.4272 61.4229 95.586 61.5815 95.586 61.7764V76.9843Z" fill="black"/>
<path d="M77.6721 63.599C74.4842 63.599 71.8909 66.1925 71.8909 69.3802C71.8909 72.5679 74.4842 75.1613 77.6721 75.1613C80.86 75.1613 83.4534 72.5679 83.4534 69.3802C83.4534 66.1925 80.86 63.599 77.6721 63.599ZM77.6721 72.3115C76.0557 72.3115 74.7407 70.9965 74.7407 69.3802C74.7407 67.764 76.0557 66.4488 77.6721 66.4488C79.2885 66.4488 80.6036 67.7638 80.6036 69.3802C80.6036 70.9967 79.2885 72.3115 77.6721 72.3115Z" fill="black"/>
</g>
<defs>
<clipPath id="clip0">
<rect width="100" height="100" fill="white"/>
</clipPath>
</defs>
</svg>
