<svg width="100" height="100" viewBox="0 0 100 100" fill="none" xmlns="http://www.w3.org/2000/svg">
<g clip-path="url(#clip0)">
<path d="M98.7716 31.167L65.7155 9.89885C65.0556 9.47424 64.1767 9.66525 63.7522 10.3248C63.3278 10.9846 63.5185 11.8635 64.1782 12.2881L96.7511 33.2454H89.1578L52.0784 9.38869C50.8161 8.57658 49.1846 8.57677 47.9221 9.38869L10.8428 33.2454H3.2494L49.9985 3.16485L56.6194 7.42462C57.2794 7.84904 58.1581 7.65841 58.5827 6.99865C59.0071 6.33888 58.8165 5.45997 58.1567 5.03536L51.5358 0.775587C50.603 0.17539 49.3977 0.17539 48.4649 0.775587L1.22889 31.167C0.22303 31.8143 -0.22619 33.0202 0.111116 34.1678C0.448421 35.3155 1.4787 36.0866 2.67479 36.0866H9.83965V40.9831V45.2714C9.83965 46.402 10.6416 47.3489 11.7064 47.5729V50.0731C11.7064 51.37 12.7615 52.4251 14.0584 52.4251H14.2537V69.8298C14.2537 70.6144 14.8897 71.2503 15.6742 71.2503C16.4588 71.2503 17.0947 70.6144 17.0947 69.8298V51.0046C17.0947 50.22 16.4588 49.5841 15.6742 49.5841H14.5477V47.6231H24.6088V49.5837H23.4823C22.6977 49.5837 22.0617 50.2196 22.0617 51.0042V82.3902C22.0617 83.1748 22.6977 83.8107 23.4823 83.8107H24.6088V85.9425H14.5477V83.8107H15.6742C16.4588 83.8107 17.0947 83.1748 17.0947 82.3902V78.7593C17.0947 77.9748 16.4588 77.3388 15.6742 77.3388C14.8897 77.3388 14.2537 77.9748 14.2537 78.7593V80.9697H14.0584C12.7615 80.9697 11.7064 82.0246 11.7064 83.3214V85.8216C10.6414 86.0457 9.83965 86.9925 9.83965 88.1232V90.9908H4.80761C3.23729 90.9908 1.95975 92.2683 1.95975 93.8386V96.8267C1.95975 98.3971 3.23729 99.6746 4.80761 99.6746H95.1929C96.7632 99.6746 98.0408 98.3971 98.0408 96.8267V93.8386C98.0408 92.2683 96.7632 90.9908 95.1929 90.9908H90.1609V88.1232C90.1609 86.9925 89.3589 86.0457 88.2941 85.8216V83.3214C88.2941 82.0246 87.239 80.9697 85.9421 80.9697H85.7468V52.4247H85.9421C87.239 52.4247 88.2941 51.3696 88.2941 50.0728V47.5725C89.3591 47.3485 90.1609 46.4016 90.1609 45.271V40.9827V36.0862H97.3257C98.5218 36.0862 99.5521 35.3151 99.8894 34.1674C100.227 33.0202 99.7775 31.8141 98.7716 31.167ZM49.4592 11.778C49.788 11.5664 50.2126 11.5666 50.5413 11.778L83.9072 33.2456H16.0936L49.4592 11.778ZM12.6807 36.0864H87.3197V39.5624H72.1044H58.3183H41.6823H27.8961H12.6807V36.0864ZM57.8722 85.822V83.3218C57.8722 82.0249 56.8171 80.9701 55.5202 80.9701H55.3249V52.4251H55.5202C56.8171 52.4251 57.8722 51.37 57.8722 50.0731V47.5729C58.9372 47.3489 59.739 46.402 59.739 45.2714V42.4036H70.6839V45.2714C70.6839 46.402 71.4859 47.3489 72.5507 47.5729V50.0731C72.5507 51.37 73.6058 52.4251 74.9027 52.4251H75.098V80.9701H74.9027C73.6058 80.9701 72.5507 82.0249 72.5507 83.3218V85.822C71.4859 86.0461 70.6839 86.9929 70.6839 88.1236V90.9912H59.739V88.1236C59.739 86.9929 58.937 86.0461 57.8722 85.822ZM27.4498 85.822V83.3218C27.4498 82.0249 26.3948 80.9701 25.0979 80.9701H24.9026V52.4251H25.0979C26.3948 52.4251 27.4498 51.37 27.4498 50.0731V47.5729C28.5147 47.3489 29.3166 46.402 29.3166 45.2714V42.4036H40.2618V45.2714C40.2618 46.402 41.0637 47.3489 42.1286 47.5729V50.0731C42.1286 51.37 43.1837 52.4251 44.4805 52.4251H44.6758V80.9701H44.4805C43.1837 80.9701 42.1286 82.0249 42.1286 83.3218V85.822C41.0637 86.0461 40.2618 86.9929 40.2618 88.1236V90.9912H29.3166V88.1236C29.3166 86.9929 28.5147 86.0461 27.4498 85.822ZM53.9044 83.8107H55.0309V85.9425H44.9698V83.8107H46.0964C46.8809 83.8107 47.5169 83.1748 47.5169 82.3902V51.0044C47.5169 50.2198 46.8809 49.5837 46.0964 49.5837H44.9698V47.6231H55.0309V49.5837H53.9044C53.1198 49.5837 52.4839 50.2196 52.4839 51.0042V82.3902C52.4839 83.1748 53.1198 83.8107 53.9044 83.8107ZM43.5491 44.7821H43.5428H43.1028V42.4036H56.8977V44.7821H56.4515C56.4505 44.7821 56.4493 44.7823 56.4483 44.7823C56.4473 44.7823 56.4462 44.7821 56.4452 44.7821H43.5491ZM43.1028 88.7136C43.2415 88.7588 43.3891 88.784 43.5428 88.784H56.445C56.6034 88.784 56.7554 88.7568 56.8977 88.7089V90.991H43.1028V88.7136ZM13.1272 44.7821H12.6809V42.4036H26.4758V44.7821H26.4756H26.0293H13.1272ZM12.6807 88.7113C12.8211 88.7578 12.9709 88.784 13.127 88.784H26.0293C26.1854 88.784 26.3352 88.7578 26.4756 88.7113V90.991H12.6807V88.7113ZM95.1998 93.8388L95.1959 96.8336C95.1959 96.8336 95.1951 96.8338 95.1929 96.8338L4.80077 96.8271L4.80761 93.8322L95.1998 93.8388ZM86.8695 88.7838C87.0271 88.7838 87.1781 88.757 87.3199 88.7097V90.991H73.5249V88.7127C73.6642 88.7584 73.8126 88.7838 73.9673 88.7838H86.8695ZM76.5183 49.5839H75.3917V47.6231H85.4529V49.5837H84.3263C83.5417 49.5837 82.9058 50.2196 82.9058 51.0042V82.3902C82.9058 83.1748 83.5417 83.8109 84.3263 83.8109H85.4529V85.9427H75.3917V83.8109H76.5183C77.3029 83.8109 77.9388 83.175 77.9388 82.3904V51.0044C77.9388 50.2198 77.3029 49.5839 76.5183 49.5839ZM87.3201 44.7821H86.8736C86.873 44.7821 86.8722 44.7823 86.8716 44.7823C86.871 44.7823 86.8703 44.7821 86.8697 44.7821H73.9714H73.9675H73.5251V42.4036H87.3201V44.7821Z" fill="black"/>
<path d="M50.6009 22.1026V17.6678C52.1302 17.777 52.6982 18.476 53.2224 18.476C53.8778 18.476 54.1837 17.646 54.1837 17.2309C54.1837 16.1606 52.0864 15.7018 50.6009 15.6581V15.0682C50.6009 14.8059 50.2733 14.5657 49.9456 14.5657C49.5741 14.5657 49.312 14.8061 49.312 15.0682V15.7018C47.2366 15.9202 45.1612 17.0126 45.1612 19.7651C45.1612 22.5614 47.346 23.3479 49.312 24.0469V29.1803C47.0837 29.0057 46.4938 27.4764 45.7729 27.4764C45.2269 27.4764 44.7681 28.1973 44.7681 28.7218C44.7681 29.7923 46.603 31.2559 49.312 31.2997V31.977C49.312 32.2393 49.5741 32.4796 49.9456 32.4796C50.2732 32.4796 50.6009 32.2391 50.6009 31.977V31.2343C52.9603 30.9067 54.5769 29.4212 54.5769 26.7341C54.5769 23.763 52.5015 22.8016 50.6009 22.1026ZM49.4433 21.6876C48.2853 21.2506 47.346 20.7919 47.346 19.5465C47.346 18.4106 48.2198 17.8645 49.4433 17.7116V21.6876ZM50.47 29.137V24.5274C51.5403 24.9862 52.3923 25.5979 52.3925 26.9743C52.3925 28.2194 51.6497 28.9186 50.47 29.137Z" fill="black"/>
</g>
<defs>
<clipPath id="clip0">
<rect width="100" height="100" fill="white"/>
</clipPath>
</defs>
</svg>
