<svg width="100" height="100" viewBox="0 0 100 100" fill="none" xmlns="http://www.w3.org/2000/svg">
<g clip-path="url(#clip0)">
<path d="M88.5752 63.5982C88.975 60.0585 89.4104 53.8011 88.5362 47.4874C88.4252 46.6843 87.6829 46.1224 86.8813 46.2351C86.0782 46.346 85.5176 47.0871 85.6289 47.89C86.4432 53.7724 86.0305 59.755 85.703 62.8566C84.7834 62.7034 83.8399 62.6222 82.8774 62.6222C80.5723 62.6222 78.3727 63.0812 76.3639 63.9105C77.8108 59.5443 78.6821 54.622 78.8006 49.9576C78.9641 43.5421 77.7385 37.6257 75.2415 32.6816H76.47L77.5147 32.8906C80.4219 34.4283 82.6278 37.2459 84.0747 41.2843C84.3481 42.0478 85.1881 42.4445 85.9514 42.171C86.7143 41.8978 87.1116 41.0576 86.8381 40.2943C85.9614 37.8468 84.8256 35.7738 83.4461 34.0769L84.1553 34.2187C85.05 34.3976 85.9108 33.6906 85.9108 32.7797V23.3865C85.9108 22.475 85.0499 21.7684 84.1553 21.9475L78.0833 23.1619V15.5586C78.0833 14.9586 77.7178 14.419 77.1606 14.1959L70.1678 11.3988C69.6766 8.48791 67.1395 6.26331 64.0911 6.26331C60.6921 6.26331 57.9269 9.02853 57.9269 12.4276C57.9269 15.8266 60.6921 18.5918 64.0911 18.5918C66.779 18.5918 69.069 16.8619 69.9102 14.4574L75.1475 16.5523V23.484H60.9601C60.1493 23.484 59.4923 24.1408 59.4923 24.9516C59.4923 25.7623 60.1491 26.4193 60.9601 26.4193H70.451V31.2136C70.451 32.0189 71.0993 32.6717 71.9024 32.6804C78.6221 44.2085 75.4628 58.9323 72.4706 65.9276C72.4286 66.0259 72.3987 66.1263 72.3792 66.2271C71.936 66.572 71.5098 66.938 71.1028 67.3241C71.0651 67.3212 71.0274 67.3185 70.9889 67.3185H57.7185C58.9632 63.4755 59.8388 58.963 59.1735 54.8015C58.4124 50.0421 55.8183 46.4927 51.4691 44.2418V35.9103C51.4691 35.0996 50.8122 34.4427 50.0015 34.4427H32.7808C27.6554 34.4427 23.4855 38.6127 23.4855 43.738V43.8408C23.4531 43.8386 23.4207 43.8359 23.3877 43.8359H23.2898V34.247H24.9531C25.7638 34.247 26.4207 33.5902 26.4207 32.7793V24.9517C26.4207 24.141 25.7638 23.4842 24.9531 23.4842H1.47032C0.65958 23.4842 0.00255027 24.141 0.00255027 24.9517V32.7793C0.00255027 33.59 0.659385 34.247 1.47032 34.247H3.1336V43.8359H1.47032C0.65958 43.8359 0.00255027 44.4929 0.00255027 45.3037C0.00255027 46.1144 0.659385 46.7712 1.47032 46.7712H17.9748C16.8484 47.339 15.7734 47.9572 14.7555 48.6244C-0.308777 58.4991 -0.0656137 73.3058 0.0144643 78.1712C0.0201284 78.5175 0.0296987 78.8647 0.0218862 79.211C0.0158315 79.4768 -0.016395 79.7309 0.056847 79.9927C0.232433 80.6186 0.819541 81.0643 1.47013 81.0643H4.76309C5.43047 88.1628 11.4209 93.7368 18.691 93.7368C25.9611 93.7368 31.9515 88.1628 32.6189 81.0643H50.0015C50.3888 81.0643 50.7603 80.9116 51.0349 80.6387C51.4554 80.2218 52.4956 78.6749 53.6857 76.5161H66.061C65.8606 77.5622 65.7544 78.6413 65.7544 79.745C65.7544 80.5557 66.4112 81.2128 67.2222 81.2128H68.963C69.6989 88.2405 75.6581 93.737 82.8772 93.737C90.0963 93.737 96.0555 88.2407 96.7914 81.2128H98.5322C99.343 81.2128 100 80.5559 100 79.745C99.9998 72.3003 95.2239 65.9513 88.5752 63.5982ZM78.0825 26.1549L82.9747 25.1764V30.989L78.4782 30.0896C78.3469 30.0256 78.2163 29.9603 78.0825 29.9V26.1549ZM64.0907 15.6565C62.3102 15.6565 60.8618 14.208 60.8618 12.4276C60.8618 10.6471 62.3102 9.19865 64.0907 9.19865C65.8712 9.19865 67.3196 10.6471 67.3196 12.4276C67.3196 14.208 65.8712 15.6565 64.0907 15.6565ZM75.1471 29.7461H73.386V26.4193H73.4839H75.1471V29.7461ZM26.4205 43.738C26.4205 40.231 29.2734 37.3781 32.7804 37.3781H48.5335V43.8359H26.4205V43.738ZM2.9377 31.3117V26.4195H23.4851V31.3117H2.9377ZM6.06875 43.8359V34.247H20.3541V43.8359H6.06875ZM18.6908 90.8014C13.0408 90.8014 8.37031 86.5409 7.71582 81.0643H11.0762C11.7043 84.6999 14.8787 87.4747 18.6908 87.4747C22.5029 87.4747 25.6773 84.6999 26.3054 81.0643H29.6656C29.0113 86.5407 24.3406 90.8014 18.6908 90.8014ZM14.0824 81.0641H23.299C22.7244 83.068 20.8767 84.5391 18.6906 84.5391C16.5045 84.5391 14.657 83.068 14.0824 81.0641ZM53.6284 69.9062C51.961 73.8938 50.0653 76.9847 49.278 78.1288H2.94962C2.94942 78.1268 2.94942 78.1247 2.94942 78.1229C2.86817 73.1849 2.65274 60.0675 16.3644 51.0792C18.8664 49.4392 21.756 48.1171 24.9531 47.1499C25.1986 47.0757 25.4101 46.9425 25.5773 46.771H49.9763C53.4685 48.5316 55.5071 51.181 56.2062 54.8702C57.1622 59.9159 55.3321 65.8319 53.6284 69.9062ZM66.9028 73.5806H55.1954C55.5249 72.8929 55.8513 72.1772 56.1657 71.4425C56.3288 71.0614 56.4929 70.664 56.6565 70.2538H68.6325C67.9405 71.2892 67.3585 72.4036 66.9028 73.5806ZM82.877 90.8014C76.9038 90.8014 72.0251 86.0395 71.8299 80.1128C73.2885 77.5559 74.9799 75.7755 77.0348 74.6921C75.8602 76.0481 75.1471 77.8143 75.1471 79.745C75.1471 84.0071 78.6147 87.4747 82.8768 87.4747C87.1389 87.4747 90.6065 84.0071 90.6065 79.745C90.6065 78.0173 90.0364 76.42 89.0748 75.1315C91.2137 76.4511 92.7992 78.328 93.9246 80.0841C93.7446 86.0237 88.8598 90.8014 82.877 90.8014ZM78.0825 79.7448C78.0825 77.1011 80.2331 74.9505 82.8768 74.9505C85.5205 74.9505 87.6711 77.1011 87.6711 79.7448C87.6711 82.3886 85.5205 84.5391 82.8768 84.5391C80.2331 84.5391 78.0825 82.3886 78.0825 79.7448ZM96.2524 78.2772C92.9274 73.2218 88.2051 70.4497 82.877 70.4497C75.2684 70.4497 71.5979 74.7118 69.4985 78.2772H68.7649C69.5018 71.1413 75.5497 65.5573 82.877 65.5573C90.2043 65.5573 96.2524 71.1413 96.9891 78.2772H96.2524Z" fill="black"/>
<path d="M48.4354 53.2289H34.3457C33.535 53.2289 32.8782 53.8857 32.8782 54.6966C32.8782 55.5074 33.535 56.1642 34.3457 56.1642H48.4354C49.2461 56.1642 49.9031 55.5074 49.9031 54.6966C49.9031 53.8859 49.2461 53.2289 48.4354 53.2289Z" fill="black"/>
<path d="M45.3044 62.6219H24.9526C24.1419 62.6219 23.4849 63.2788 23.4849 64.0895C23.4849 64.9003 24.1419 65.5573 24.9526 65.5573H45.3044C46.1151 65.5573 46.7721 64.9003 46.7721 64.0895C46.7721 63.2788 46.1153 62.6219 45.3044 62.6219Z" fill="black"/>
<path d="M40.6079 72.015H15.5597C14.749 72.015 14.0922 72.6719 14.0922 73.4828C14.0922 74.2935 14.749 74.9504 15.5597 74.9504H40.6079C41.4187 74.9504 42.0757 74.2935 42.0757 73.4828C42.0757 72.6719 41.4187 72.015 40.6079 72.015Z" fill="black"/>
</g>
<defs>
<clipPath id="clip0">
<rect width="100" height="100" fill="white"/>
</clipPath>
</defs>
</svg>
