<svg width="82" height="82" viewBox="0 0 82 82" fill="none" xmlns="http://www.w3.org/2000/svg">
<path d="M70.6349 33.896H70.4319V28.9233C70.4319 12.9494 57.4827 0 41.5086 0C25.5346 0 12.5854 12.9494 12.5854 28.9233V33.896H11.3676C6.90224 33.896 3.4518 37.8538 3.4518 42.4208V55.1064C3.33933 59.5328 6.83658 63.2122 11.2629 63.3247C11.2979 63.3257 11.3327 63.3263 11.3676 63.3267H18.8775C19.9412 63.2767 20.7631 62.3737 20.7129 61.31C20.7112 61.2717 20.7083 61.2334 20.7042 61.1954V36.3315C20.7042 35.1138 19.9938 33.8958 18.8775 33.8958H16.6448V28.9231C16.6448 15.1912 27.7768 4.05922 41.5086 4.05922C55.2405 4.05922 66.3725 15.1912 66.3725 28.9231V33.8958H64.1398C63.0234 33.8958 62.3131 35.1136 62.3131 36.3315V61.1954C62.1998 62.2542 62.9663 63.2045 64.0252 63.3177C64.0633 63.3218 64.1015 63.3247 64.1398 63.3265H66.4739L66.2709 63.6309C63.2257 67.678 58.4471 70.0484 53.3823 70.0244C52.2735 64.5875 46.967 61.0788 41.5302 62.1878C36.8808 63.1359 33.5287 67.2078 33.4912 71.9527C33.5468 77.5179 38.0743 82 43.6397 81.9996C46.3948 81.9549 49.0208 80.8244 50.9466 78.8536C52.2459 77.5229 53.0973 75.82 53.3823 73.9822C59.7249 74.0063 65.7064 71.0343 69.5183 65.9649L71.4466 63.1233C75.8104 62.8189 78.5505 60.0788 78.5505 56.1208V43.4352C78.5507 39.0718 75.3033 33.896 70.6349 33.896ZM16.6448 59.2672H11.3676C9.18233 59.214 7.4539 57.3995 7.50713 55.2142C7.5081 55.1783 7.50946 55.1424 7.51121 55.1062V42.4206C7.51121 40.0865 9.13493 37.9552 11.3676 37.9552H16.6448V59.2672V59.2672ZM48.0037 76.0123C46.879 77.2318 45.2988 77.9301 43.6399 77.9406C40.3381 77.8881 37.6586 75.2533 37.5508 71.9529C37.5495 68.646 40.2291 65.9642 43.536 65.9628C46.8429 65.9615 49.5247 68.6411 49.5261 71.948C49.5261 71.9496 49.5261 71.9513 49.5261 71.9529C49.6106 73.4596 49.0581 74.9326 48.0037 76.0123ZM74.4913 56.1212C74.4913 58.8613 71.8526 59.2672 70.6349 59.2672H66.3725V37.9554H70.6349C72.8676 37.9554 74.4913 41.1015 74.4913 43.4356V56.1212Z" fill="#D53444"/>
</svg>
