<svg width="100" height="100" viewBox="0 0 100 100" fill="none" xmlns="http://www.w3.org/2000/svg">
<path d="M56.649 87.1135H46.6967C46.1787 87.1135 45.6819 87.3193 45.3156 87.6856C44.9493 88.0519 44.7435 88.5486 44.7435 89.0667C44.7435 89.5847 44.9493 90.0814 45.3156 90.4477C45.6819 90.814 46.1787 91.0198 46.6967 91.0198H56.649C57.167 91.0198 57.6638 90.814 58.0301 90.4477C58.3964 90.0814 58.6021 89.5847 58.6021 89.0667C58.6021 88.5486 58.3964 88.0519 58.0301 87.6856C57.6638 87.3193 57.167 87.1135 56.649 87.1135Z" fill="black"/>
<path d="M90.625 32.4219C86.6869 32.4219 83.2828 33.524 80.7812 35.6088C80.5506 35.8012 80.315 36.0143 80.0781 36.2469V6.25C80.0742 4.9044 79.5379 3.61504 78.5864 2.66355C77.6349 1.71206 76.3456 1.17579 75 1.17188H28.125C26.7794 1.17579 25.49 1.71206 24.5385 2.66355C23.587 3.61504 23.0508 4.9044 23.0469 6.25V11.4453L22.8049 11.2033C21.2664 9.66486 19.1798 8.80056 17.0041 8.80056C14.8284 8.80056 12.7418 9.66486 11.2033 11.2033C9.66484 12.7418 8.80054 14.8284 8.80054 17.0041C8.80054 19.1798 9.66484 21.2664 11.2033 22.8049L19.6553 31.2568C18.2873 31.6558 17.0468 32.4041 16.0558 33.428C15.0648 34.452 14.3575 35.7164 14.0036 37.0967C13.6496 38.477 13.6612 39.9257 14.0371 41.3001C14.4131 42.6746 15.1404 43.9275 16.1476 44.9355L20.9554 49.7434C19.4289 49.9291 17.9854 50.5403 16.7896 51.5071C15.5937 52.474 14.6938 53.7575 14.1925 55.2113C13.6912 56.6651 13.6087 58.2305 13.9544 59.7289C14.3001 61.2273 15.0601 62.5984 16.1476 63.6855L19.3926 66.9311C17.866 67.1168 16.4225 67.728 15.2267 68.6948C14.0308 69.6617 13.1309 70.9452 12.6296 72.399C12.1283 73.8527 12.0458 75.4182 12.3915 76.9166C12.7372 78.415 13.4972 79.786 14.5847 80.8732L23.0469 89.3359V93.75C23.0484 95.0963 23.5838 96.3871 24.5359 97.3391C25.4879 98.2911 26.7786 98.8266 28.125 98.8281H65.625C66.143 98.8281 66.6398 98.6224 67.006 98.2561C67.3723 97.8898 67.5781 97.393 67.5781 96.875V78.125C67.582 76.4883 67.9649 74.8748 68.6969 73.411C69.4288 71.9471 70.4899 70.6726 71.7968 69.6875L79.2968 64.0625C79.5382 63.8795 79.7343 63.6434 79.8698 63.3724C80.0052 63.1014 80.0765 62.8029 80.0781 62.5V46.875C80.0781 39.0963 84.8261 36.9268 88.6718 36.4453V96.875C88.6718 97.393 88.8776 97.8898 89.2439 98.2561C89.6102 98.6224 90.107 98.8281 90.625 98.8281C91.143 98.8281 91.6398 98.6224 92.006 98.2561C92.3723 97.8898 92.5781 97.393 92.5781 96.875V34.375C92.5781 33.857 92.3723 33.3602 92.006 32.9939C91.6398 32.6276 91.143 32.4219 90.625 32.4219ZM28.125 5.07812H75C75.3107 5.07844 75.6086 5.202 75.8283 5.4217C76.048 5.6414 76.1715 5.93929 76.1718 6.25V12.1008H26.9531V6.25C26.9534 5.93929 27.077 5.6414 27.2967 5.4217C27.5164 5.202 27.8143 5.07844 28.125 5.07812ZM12.706 17.0039C12.667 13.2203 17.3957 11.2646 20.0428 13.965L23.0469 16.9693V29.1246L13.9648 20.0426C13.5645 19.6445 13.2471 19.1709 13.031 18.6493C12.815 18.1278 12.7045 17.5685 12.706 17.0039ZM18.9094 36.0969C20.509 34.4299 23.3867 34.4299 24.9861 36.0969L33.825 44.9357C37.7064 49.1043 31.9008 54.8953 27.7482 51.0125L18.9094 42.1736C18.1048 41.3671 17.653 40.2744 17.653 39.1353C17.653 37.9961 18.1048 36.9034 18.9094 36.0969ZM36.5871 42.1736L34.4642 40.0506C34.8682 36.1674 36.6117 32.5461 39.3953 29.8086C42.1789 27.0711 45.8288 25.3884 49.7182 25.0493C53.6076 24.7102 57.4937 25.7361 60.7089 27.9506C63.9242 30.1651 66.2681 33.4301 67.3379 37.1848C68.4077 40.9395 68.1367 44.9495 66.5715 48.5261C65.0063 52.1028 62.2445 55.0228 58.7605 56.7846C55.2765 58.5464 51.2877 59.0401 47.4794 58.1808C43.671 57.3216 40.2806 55.1631 37.8906 52.076C38.7912 50.5114 39.1516 48.6938 38.916 46.904C38.6804 45.1142 37.8619 43.4518 36.5871 42.1736ZM18.9094 54.8469C20.509 53.1799 23.3867 53.1799 24.9861 54.8469L33.825 63.6857C37.7064 67.8543 31.9008 73.6453 27.7482 69.7625L18.9094 60.9236C18.1048 60.1171 17.653 59.0244 17.653 57.8853C17.653 56.7461 18.1048 55.6534 18.9094 54.8469ZM17.3469 72.0344C18.9465 70.3674 21.8242 70.3674 23.4236 72.0344L32.2625 80.8732C36.1439 85.0418 30.3383 90.8328 26.1857 86.95L17.3469 78.1111C16.5423 77.3046 16.0905 76.2119 16.0905 75.0728C16.0905 73.9336 16.5423 72.8409 17.3469 72.0344ZM26.9531 93.75V91.7969C27.6915 92.0086 28.4559 92.116 29.224 92.1158C30.3602 92.1163 31.4841 91.8804 32.5243 91.4233C33.5646 90.9662 34.4984 90.2977 35.2664 89.4604C36.0345 88.6232 36.6201 87.6353 36.986 86.5596C37.3519 85.4839 37.4902 84.3439 37.392 83.2119H63.6718V94.9219H28.125C27.8143 94.9216 27.5164 94.798 27.2967 94.5783C27.077 94.3586 26.9534 94.0607 26.9531 93.75ZM69.4531 66.5625C67.662 67.9125 66.208 69.6589 65.2049 71.665C64.2019 73.671 63.6772 75.8822 63.6718 78.125V79.3047H36.0099C35.7199 78.8767 35.3899 78.477 35.0246 78.1111L31.7793 74.8658C33.3058 74.6801 34.7493 74.0689 35.9452 73.1021C37.141 72.1352 38.0409 70.8517 38.5422 69.3979C39.0435 67.9441 39.1261 66.3787 38.7804 64.8803C38.4346 63.3819 37.6746 62.0108 36.5871 60.9236L31.7793 56.1158C32.981 55.9729 34.1354 55.5629 35.1582 54.916C38.1101 58.5147 42.1889 61.0133 46.7358 62.0083C51.2828 63.0032 56.0323 62.4364 60.2175 60.3994C64.4026 58.3624 67.7789 54.9742 69.8011 50.7819C71.8233 46.5896 72.3733 41.8381 71.3623 37.2947C70.3513 32.7513 67.8383 28.6813 64.2292 25.7421C60.6201 22.8029 56.1256 21.1661 51.4716 21.096C46.8176 21.0259 42.2759 22.5266 38.5799 25.3558C34.8839 28.185 32.2495 32.1774 31.1021 36.6883C31.1021 36.6883 27.2301 32.8516 26.9531 32.6367V16.007H76.1718V61.5234L69.4531 66.5625Z" fill="black"/>
<path d="M49.4141 43.75H52.7344C53.4683 43.7759 54.1634 44.0856 54.6734 44.6138C55.1834 45.1421 55.4684 45.8477 55.4684 46.582C55.4684 47.3163 55.1834 48.0219 54.6734 48.5502C54.1634 49.0785 53.4683 49.3882 52.7344 49.4141H47.8108C47.1286 49.4297 46.6389 48.7672 46.7389 48.1158C46.7482 47.5978 46.5513 47.0974 46.1916 46.7245C45.8319 46.3517 45.3388 46.137 44.8208 46.1277C44.3028 46.1185 43.8023 46.3153 43.4295 46.6751C43.0566 47.0348 42.8419 47.5279 42.8327 48.0459L42.829 48.2482C42.817 48.91 42.9371 49.5675 43.1821 50.1824C43.4271 50.7972 43.7921 51.3571 44.2559 51.8293C44.7197 52.3015 45.273 52.6765 45.8833 52.9325C46.4937 53.1885 47.1489 53.3204 47.8108 53.3203H49.2188V54.4922C49.2188 55.0102 49.4246 55.507 49.7909 55.8733C50.1571 56.2395 50.6539 56.4453 51.1719 56.4453C51.6899 56.4453 52.1867 56.2395 52.553 55.8733C52.9193 55.507 53.1251 55.0102 53.1251 54.4922V53.308C54.8574 53.1818 56.4741 52.3918 57.6383 51.1028C58.8024 49.8137 59.4241 48.1251 59.3737 46.3889C59.3234 44.6527 58.6048 43.003 57.3679 41.7836C56.131 40.5642 54.4712 39.8693 52.7344 39.8438H49.4141C48.6889 39.8438 47.9934 39.5557 47.4806 39.0429C46.9678 38.5301 46.6797 37.8346 46.6797 37.1094C46.6797 36.3842 46.9678 35.6887 47.4806 35.1759C47.9934 34.6631 48.6889 34.375 49.4141 34.375H54.26C54.9479 34.4324 55.306 34.8064 55.3342 35.4969C55.3232 35.7531 55.3628 36.0091 55.4506 36.25C55.5385 36.491 55.673 36.7123 55.8464 36.9013C56.1966 37.283 56.6841 37.51 57.2016 37.5322C57.7192 37.5545 58.2243 37.3703 58.606 37.0201C58.9877 36.6699 59.2147 36.1824 59.237 35.6648C59.2659 34.9932 59.1585 34.3227 58.9214 33.6937C58.6844 33.0647 58.3224 32.4901 57.8574 32.0046C57.3924 31.5192 56.834 31.1328 56.2158 30.8689C55.5975 30.6049 54.9323 30.4688 54.26 30.4688H53.1251V29.2969C53.1251 28.7789 52.9193 28.2821 52.553 27.9158C52.1867 27.5495 51.6899 27.3438 51.1719 27.3438C50.6539 27.3438 50.1571 27.5495 49.7909 27.9158C49.4246 28.2821 49.2188 28.7789 49.2188 29.2969V30.4736C47.4759 30.5254 45.8233 31.2608 44.618 32.5208C43.4127 33.7809 42.7514 35.4645 42.7771 37.208C42.8027 38.9515 43.5132 40.615 44.7551 41.839C45.9969 43.0631 47.6704 43.7495 49.4141 43.75Z" fill="black"/>
</svg>
