<svg width="63" height="63" viewBox="0 0 63 63" fill="none" xmlns="http://www.w3.org/2000/svg">
<path d="M63 30.6896C63 47.6378 49.1538 61.3771 32.0701 61.3771C26.6487 61.3771 21.556 59.9904 17.1228 57.5622L0 63L5.5816 46.5305C2.76718 41.9082 1.14631 36.4807 1.14631 30.6875C1.14837 13.7393 14.9904 0 32.0742 0C49.1559 0.00410865 63 13.7414 63 30.6896ZM32.068 4.8934C17.7309 4.8934 6.06848 16.4675 6.06848 30.6957C6.06848 36.341 7.90915 41.5672 11.0215 45.8197L7.77562 55.399L17.7638 52.2251C21.8724 54.9203 26.7884 56.4898 32.068 56.4898C46.4052 56.4898 58.0717 44.9178 58.0717 30.6896C58.0758 16.4675 46.4072 4.8934 32.068 4.8934ZM47.6891 37.7585C47.496 37.4483 46.9906 37.2593 46.2347 36.8813C45.4807 36.5033 41.748 34.6852 41.0557 34.4387C40.3572 34.186 39.8519 34.0587 39.3465 34.8126C38.8473 35.5665 37.3928 37.2593 36.947 37.7647C36.5054 38.268 36.0637 38.3317 35.3056 37.9598C34.5476 37.5777 32.1029 36.7889 29.2063 34.2271C26.9528 32.2303 25.4305 29.7713 24.9909 29.0173C24.5451 28.2655 24.9457 27.8587 25.3216 27.4848C25.6606 27.1459 26.0797 26.6056 26.4597 26.1639C26.8398 25.7263 26.9651 25.4161 27.2178 24.9128C27.4663 24.4095 27.341 23.9719 27.1541 23.5919C26.9651 23.2139 25.451 19.5161 24.8163 18.0103C24.1856 16.5065 23.5549 16.7551 23.1112 16.7551C22.6695 16.7551 22.1641 16.6935 21.6588 16.6935C21.1534 16.6935 20.3317 16.8763 19.6394 17.6302C18.947 18.3842 16.9872 20.2022 16.9872 23.9041C16.9872 27.6101 19.701 31.1826 20.081 31.6839C20.4631 32.1831 25.3278 40.0285 33.0336 43.0402C40.7434 46.0498 40.7434 45.0452 42.1322 44.9178C43.525 44.7905 46.6188 43.0998 47.2474 41.3454C47.8802 39.5827 47.8802 38.0728 47.6891 37.7585Z" fill="#D53444"/>
</svg>
