<svg width="82" height="82" viewBox="0 0 82 82" fill="none" xmlns="http://www.w3.org/2000/svg">
<g clip-path="url(#clip0)">
<path d="M4.11209 46.2983V75.1625C4.11209 78.9295 7.17682 81.9942 10.9438 81.9942H71.0633C74.8303 81.9942 77.895 78.9295 77.895 75.1625V46.2983C77.895 45.5437 77.2832 44.932 76.5287 44.932C75.7741 44.932 75.1623 45.5437 75.1623 46.2983V75.1625C75.1623 77.4227 73.3236 79.2615 71.0633 79.2615H56.2042V56.2043C56.2042 52.4373 53.1395 49.3726 49.3725 49.3726H32.6347C28.8676 49.3726 25.8029 52.4373 25.8029 56.2043V73.7961C25.8029 74.5507 26.4147 75.1625 27.1693 75.1625C27.9238 75.1625 28.5356 74.5507 28.5356 73.7961V56.2043C28.5356 53.9442 30.3745 52.1053 32.6347 52.1053H49.3725C51.6326 52.1053 53.4715 53.9442 53.4715 56.2043V79.2615H42.3699V57.7415C42.3699 56.9869 41.7581 56.3751 41.0036 56.3751C40.249 56.3751 39.6372 56.9869 39.6372 57.7415V79.2615H10.9438C8.68373 79.2615 6.8448 77.4227 6.8448 75.1625V46.2983C6.8448 45.5437 6.23301 44.932 5.47844 44.932C4.72388 44.932 4.11209 45.5436 4.11209 46.2983ZM73.1128 21.8748C73.1128 22.6294 72.501 23.2411 71.7465 23.2411C-2.59465 23.2411 1.09126 23.374 0.548134 22.9575C0.264275 22.739 0.0786209 22.4239 0.0277252 22.0639C-0.0484467 21.5148 -0.538795 22.8651 9.00704 0.836239C9.22378 0.336496 9.71618 0.0131836 10.2608 0.0131836H71.7466C72.2911 0.0131836 72.7839 0.336667 73.0002 0.836239L81.8815 21.3315C82.0385 21.6939 81.9943 21.1187 81.9943 30.3516C81.9843 36.566 76.9277 41.6218 70.7219 41.6218C66.4556 41.6218 62.7325 39.2324 60.8187 35.7198C56.5444 43.5747 45.2859 43.5834 41.0037 35.7251C36.725 43.577 25.4714 43.5788 21.1916 35.7251C19.2793 39.2346 15.5558 41.6218 11.2856 41.6218C5.0699 41.6218 0.0132065 36.5651 0.0132065 30.3494C0.0132065 29.5948 0.624992 28.9831 1.37956 28.9831C2.13412 28.9831 2.74591 29.5948 2.74591 30.3494C2.74591 35.0582 6.57682 38.8891 11.2856 38.8891C15.9944 38.8891 19.8253 35.0582 19.8253 30.3494C19.8253 29.5948 20.4371 28.9831 21.1916 28.9831C21.9462 28.9831 22.558 29.5948 22.558 30.3494C22.558 35.0582 26.3889 38.8891 31.0977 38.8891C35.8065 38.8891 39.6374 35.0582 39.6374 30.3494C39.6374 29.5948 40.2492 28.9831 41.0037 28.9831C41.7583 28.9831 42.3701 29.5948 42.3701 30.3494C42.3701 35.0582 46.201 38.8891 50.9098 38.8891C55.5139 38.8891 59.4495 35.189 59.4495 30.2811C59.4495 29.5265 60.0612 28.9147 60.8158 28.9147C61.5704 28.9147 62.1822 29.5265 62.1822 30.2811C62.1822 35.1475 66.0932 38.8891 70.7219 38.8891C75.4231 38.8891 79.2542 35.0572 79.2616 30.3494V22.158L70.8494 2.74588H11.1577L3.46069 20.5084H71.7465C72.5012 20.5084 73.1128 21.1201 73.1128 21.8748Z" fill="black" stroke="black" stroke-width="1.06642"/>
</g>
<defs>
<clipPath id="clip0">
<rect width="82" height="82" fill="white" transform="matrix(-1 0 0 1 82 0)"/>
</clipPath>
</defs>
</svg>
